<?xml version="1.0" standalone="no"?>
<!DOCTYPE svg PUBLIC "-//W3C//DTD SVG 20010904//EN"
 "http://www.w3.org/TR/2001/REC-SVG-20010904/DTD/svg10.dtd">
<svg version="1.0" xmlns="http://www.w3.org/2000/svg"
 width="360.000000pt" height="360.000000pt" viewBox="0 0 360.000000 360.000000"
 preserveAspectRatio="xMidYMid meet">

<g transform="translate(0.000000,360.000000) scale(0.100000,-0.100000)"
fill="#000000" stroke="none">
<path d="M1098 2473 c29 -2 74 -2 100 0 26 2 2 3 -53 3 -55 0 -76 -1 -47 -3z"/>
<path d="M1949 2470 l144 -5 153 -223 c84 -123 156 -222 161 -222 4 1 79 102
166 224 l158 221 137 5 137 6 -137 2 -136 2 -157 -220 c-86 -121 -160 -222
-165 -225 -5 -3 -72 88 -150 202 -79 115 -149 216 -158 226 -13 15 -33 17
-156 15 l-141 -2 144 -6z"/>
<path d="M1008 2463 c6 -2 18 -2 25 0 6 3 1 5 -13 5 -14 0 -19 -2 -12 -5z"/>
<path d="M1258 2463 c6 -2 18 -2 25 0 6 3 1 5 -13 5 -14 0 -19 -2 -12 -5z"/>
<path d="M935 2445 c-39 -17 -21 -18 25 0 19 7 28 14 20 14 -8 0 -28 -6 -45
-14z"/>
<path d="M1331 2445 c138 -50 244 -149 315 -290 19 -38 32 -59 28 -45 -20 75
-110 199 -186 258 -56 43 -152 92 -178 91 -8 0 1 -6 21 -14z"/>
<path d="M2790 2174 c-197 -263 -250 -337 -223 -309 12 11 425 563 437 583 26
43 -24 -21 -214 -274z"/>
<path d="M1836 2400 c22 -30 60 -84 87 -120 26 -36 55 -76 65 -90 9 -13 30
-38 45 -55 15 -16 -25 42 -88 130 -64 88 -124 167 -132 175 -8 8 2 -10 23 -40z"/>
<path d="M834 2397 c-124 -77 -206 -179 -260 -323 -14 -38 -22 -66 -18 -61 4
4 19 38 34 75 51 131 145 243 262 311 29 17 49 31 43 31 -5 0 -33 -15 -61 -33z"/>
<path d="M1113 2273 c9 -2 23 -2 30 0 6 3 -1 5 -18 5 -16 0 -22 -2 -12 -5z"/>
<path d="M1053 2263 c9 -2 23 -2 30 0 6 3 -1 5 -18 5 -16 0 -22 -2 -12 -5z"/>
<path d="M1188 2263 c6 -2 18 -2 25 0 6 3 1 5 -13 5 -14 0 -19 -2 -12 -5z"/>
<path d="M954 2230 c-28 -16 -70 -50 -92 -75 -40 -45 -83 -137 -81 -173 0 -9
8 8 18 40 34 105 90 170 185 214 28 13 44 24 36 24 -8 0 -38 -13 -66 -30z"/>
<path d="M1300 2223 c64 -37 78 -51 122 -117 21 -33 38 -55 38 -50 0 17 -56
98 -86 125 -33 31 -94 69 -109 69 -5 0 10 -12 35 -27z"/>
<path d="M2076 2075 c10 -16 32 -48 49 -70 18 -22 51 -67 74 -99 22 -33 41
-55 41 -50 0 5 -37 59 -81 119 -84 114 -115 151 -83 100z"/>
<path d="M1692 2040 c0 -8 4 -26 8 -40 6 -20 8 -21 8 -5 0 11 -3 29 -8 40 -5
12 -8 14 -8 5z"/>
<path d="M1464 2028 c3 -9 8 -32 11 -51 6 -32 4 -36 -17 -40 -20 -4 -19 -4 6
-6 28 -1 28 0 22 41 -4 22 -11 48 -17 57 -9 14 -10 14 -5 -1z"/>
<path d="M545 1983 c-4 -10 -9 -76 -10 -148 l-3 -130 7 125 c4 69 11 135 15
148 9 26 1 30 -9 5z"/>
<path d="M1716 1905 c3 -39 10 -73 13 -78 4 -4 4 25 -1 65 -11 93 -21 104 -12
13z"/>
<path d="M770 1947 c0 -10 8 -17 18 -17 9 0 13 4 7 8 -5 4 -13 11 -17 16 -5 5
-8 2 -8 -7z"/>
<path d="M1732 1790 c0 -14 2 -19 5 -12 2 6 2 18 0 25 -3 6 -5 1 -5 -13z"/>
<path d="M2080 1593 c-196 -275 -202 -283 -196 -283 4 0 329 453 350 488 4 6
6 12 4 12 -2 0 -73 -98 -158 -217z"/>
<path d="M770 1706 c0 -129 72 -271 161 -319 31 -16 32 -16 9 0 -86 60 -137
146 -153 261 -9 62 -9 75 3 82 13 8 12 10 -2 10 -14 0 -18 -8 -18 -34z"/>
<path d="M1698 1733 c7 -3 16 -2 19 1 4 3 -2 6 -13 5 -11 0 -14 -3 -6 -6z"/>
<path d="M542 1670 c0 -19 2 -27 5 -17 2 9 2 25 0 35 -3 9 -5 1 -5 -18z"/>
<path d="M551 1618 c-1 -25 48 -176 59 -183 6 -3 5 6 -2 22 -6 15 -21 62 -34
103 -13 41 -23 67 -23 58z"/>
<path d="M2362 1610 c-18 -29 -15 -38 4 -12 9 13 14 25 12 27 -2 2 -9 -5 -16
-15z"/>
<path d="M2725 1610 c14 -26 307 -434 323 -450 20 -20 -7 19 -172 250 -130
182 -171 237 -151 200z"/>
<path d="M1487 1553 c-3 -5 29 -7 71 -5 135 4 150 9 40 10 -59 1 -109 -1 -111
-5z"/>
<path d="M1696 1508 c-13 -71 -74 -174 -137 -232 -62 -58 -107 -85 -194 -118
-27 -10 -36 -16 -20 -13 107 21 257 137 312 242 35 67 56 128 50 146 -2 6 -7
-5 -11 -25z"/>
<path d="M2490 1537 c0 -9 170 -257 176 -257 4 0 -151 237 -167 255 -5 5 -9 6
-9 2z"/>
<path d="M1463 1498 c-17 -46 -74 -102 -135 -132 -29 -14 -46 -26 -39 -26 17
0 69 28 109 58 35 27 86 105 80 123 -2 6 -9 -5 -15 -23z"/>
<path d="M2157 1305 l-117 -174 -135 -4 -135 -3 137 1 138 0 108 160 c110 163
131 195 124 195 -2 0 -56 -79 -120 -175z"/>
<path d="M622 1413 c6 -21 83 -123 92 -123 6 0 -2 12 -16 28 -14 15 -38 45
-53 67 -15 22 -25 35 -23 28z"/>
<path d="M990 1355 c14 -8 32 -14 40 -14 8 0 0 6 -19 14 -42 19 -54 19 -21 0z"/>
<path d="M1063 1333 c9 -2 23 -2 30 0 6 3 -1 5 -18 5 -16 0 -22 -2 -12 -5z"/>
<path d="M1165 1330 l-60 -7 55 0 c30 0 69 3 85 7 26 7 27 8 5 7 -14 0 -52 -3
-85 -7z"/>
<path d="M1823 1233 c-44 -64 -62 -94 -46 -78 23 24 97 135 90 135 -2 0 -22
-26 -44 -57z"/>
<path d="M740 1260 c83 -66 190 -120 235 -119 11 0 -5 8 -35 18 -70 22 -105
41 -164 86 -25 19 -50 35 -54 35 -4 0 4 -9 18 -20z"/>
<path d="M2678 1255 c6 -11 28 -45 50 -75 l38 -55 150 -1 149 0 -147 5 -147 6
-45 63 c-48 69 -65 89 -48 57z"/>
<path d="M1008 1133 c6 -2 18 -2 25 0 6 3 1 5 -13 5 -14 0 -19 -2 -12 -5z"/>
<path d="M1245 1130 c-14 -7 -8 -8 20 -3 22 3 42 7 44 9 9 8 -45 2 -64 -6z"/>
<path d="M1098 1123 c23 -2 61 -2 85 0 23 2 4 4 -43 4 -47 0 -66 -2 -42 -4z"/>
</g>
</svg>
